HIERARCHY
ROOT Hips
{
    OFFSET 0.000000 0.000000 0.000000
    CHANNELS 6 Xposition Yposition Zposition Zrotation Xrotation Yrotation
    JOINT Spine
    {
        OFFSET -0.000000 7.883683 0.000000
        CHANNELS 3 Zrotation Xrotation Yrotation
        JOINT Spine1
        {
            OFFSET -0.000000 24.776327 0.000000
            CHANNELS 3 Zrotation Xrotation Yrotation
            JOINT Neck
            {
                OFFSET -0.000000 24.674574 2.243143
                CHANNELS 3 Zrotation Xrotation Yrotation
                JOINT Head
                {
                    OFFSET -0.000000 13.459947 -1.922849
                    CHANNELS 3 Zrotation Xrotation Yrotation
                    End Site
                    {
                        OFFSET -0.000000 24.035618 0.000000
                    }
                }
            }
            JOINT LeftShoulder
            {
                OFFSET 3.810223 22.323311 -0.325006
                CHANNELS 3 Zrotation Xrotation Yrotation
                JOINT LeftArm
                {
                    OFFSET 12.560579 0.000000 0.000000
                    CHANNELS 3 Zrotation Xrotation Yrotation
                    JOINT LeftForeArm
                    {
                        OFFSET 28.806782 0.000000 0.000000
                        CHANNELS 3 Zrotation Xrotation Yrotation
                        JOINT LeftHand
                        {
                            OFFSET 23.813900 0.000000 0.000000
                            CHANNELS 3 Zrotation Xrotation Yrotation
                            End Site
                            {
                                OFFSET 14.421371 0.000000 0.000000
                            }
                        }
                    }
                }
            }
            JOINT RightShoulder
            {
                OFFSET -3.823061 22.323311 -0.325006
                CHANNELS 3 Zrotation Xrotation Yrotation
                JOINT RightArm
                {
                    OFFSET -12.560579 0.000000 0.000000
                    CHANNELS 3 Zrotation Xrotation Yrotation
                    JOINT RightForeArm
                    {
                        OFFSET -28.806782 0.000000 0.000000
                        CHANNELS 3 Zrotation Xrotation Yrotation
                        JOINT RightHand
                        {
                            OFFSET -23.813900 0.000000 0.000000
                            CHANNELS 3 Zrotation Xrotation Yrotation
                            End Site
                            {
                                OFFSET -14.421371 0.000000 0.000000
                            }
                        }
                    }
                }
            }
        }
    }
    JOINT LeftUpLeg
    {
        OFFSET 9.614247 0.000000 0.000000
        CHANNELS 3 Zrotation Xrotation Yrotation
        JOINT LeftLeg
        {
            OFFSET -0.000000 -41.464203 0.000000
            CHANNELS 3 Zrotation Xrotation Yrotation
            JOINT LeftFoot
            {
                OFFSET -0.000000 -34.276012 0.000000
                CHANNELS 3 Zrotation Xrotation Yrotation
                JOINT LeftToeBase
                {
                    OFFSET -0.000000 -6.249260 14.421371
                    CHANNELS 3 Zrotation Xrotation Yrotation
                    End Site
                    {
                        OFFSET -0.000000 0.000000 3.845699
                    }
                }
            }
        }
    }
    JOINT RightUpLeg
    {
        OFFSET -9.614247 0.000000 0.000000
        CHANNELS 3 Zrotation Xrotation Yrotation
        JOINT RightLeg
        {
            OFFSET -0.000000 -41.464203 0.000000
            CHANNELS 3 Zrotation Xrotation Yrotation
            JOINT RightFoot
            {
                OFFSET -0.000000 -34.276012 0.000000
                CHANNELS 3 Zrotation Xrotation Yrotation
                JOINT RightToeBase
                {
                    OFFSET -0.000000 -6.249260 14.421371
                    CHANNELS 3 Zrotation Xrotation Yrotation
                    End Site
                    {
                        OFFSET -0.000000 0.000000 3.845699
                    }
                }
            }
        }
    }
}
MOTION
Frames:    7
Frame Time:    0.004000
-5.656415    112.091049    -55.290352    3.380221    -8.567727    -0.466089    2.566046    7.036191    1.743063    -9.074170    5.620859    2.347173    7.320209    19.636465    -7.025062    -5.210320    11.001733    -7.319757    -0.713490    9.299521    15.191741    -60.130547    51.468136    -11.682741    3.164379    -4.230977    -21.615555    -3.678126    -3.218368    -12.728116    -0.651231    6.997250    2.051686    67.211723    34.353683    9.384928    -0.388370    4.693919    10.157696    6.543720    4.835846    1.890303    -12.153816    -12.414055    3.579408    -0.565137    61.091709    -0.997298    17.531088    -34.231796    36.479671    0.000000    0.000000    0.000000    -6.889123    -17.610508    -10.978207    -0.102398    20.029091    -2.032023    5.523944    28.054445    -5.119706    0.000000    0.000000    0.000000    
-5.616406    111.839783    -55.051266    3.487665    -8.414723    -0.481488    2.543643    6.903075    1.821429    -9.153020    5.471314    2.413090    7.529951    19.551203    -7.086466    -5.490028    10.913033    -7.400238    -0.745760    9.353931    15.301409    -60.103176    51.397385    -11.542383    3.121379    -4.210658    -21.791328    -3.482763    -3.225475    -12.649163    -0.564919    7.189616    1.928407    67.100769    34.281693    9.276244    -0.288319    4.696982    10.258522    6.270136    4.821733    1.815973    -12.322777    -12.625591    3.387248    -0.943894    61.684532    -0.673841    17.756609    -34.650822    36.876850    0.000000    0.000000    0.000000    -6.967049    -17.382317    -11.105272    -0.094688    19.390448    -2.013760    5.426428    28.695879    -5.111740    0.000000    0.000000    0.000000    
-5.585124    111.592529    -54.813213    3.575005    -8.236434    -0.501925    2.566697    6.723944    1.892231    -9.304660    5.351054    2.478761    7.584885    19.484882    -7.154825    -5.455605    10.862706    -7.475204    -0.686362    9.406806    15.412316    -60.173317    51.284523    -11.373363    3.159953    -4.142892    -21.838291    -3.556365    -3.132287    -12.918059    -0.535056    7.264775    1.865949    67.183342    34.235226    9.016666    -0.228620    4.791307    10.331926    6.218493    4.914247    1.893745    -12.459132    -12.890502    3.262455    -1.202028    62.345352    -0.671795    18.018200    -34.985332    37.407776    0.000000    0.000000    0.000000    -7.008642    -17.176399    -11.217809    -0.072201    18.746101    -2.035091    5.692558    29.077429    -5.526067    0.000000    0.000000    0.000000    
-5.533533    111.336044    -54.570282    3.701822    -8.143684    -0.556696    2.566971    6.662066    1.985714    -9.456835    5.212708    2.566545    7.336979    19.307434    -7.200868    -5.001293    11.018391    -7.514819    -0.669334    9.416302    15.507807    -60.252048    51.351315    -11.121886    3.315731    -4.161539    -22.040916    -3.512834    -3.122264    -12.837210    -0.547064    7.255957    1.758846    67.345314    34.191509    8.683434    -0.212797    4.870234    10.423638    6.371427    4.995272    1.909145    -12.733806    -13.058314    3.232229    -1.053187    62.873501    -0.215605    17.692936    -35.592930    37.189079    0.000000    0.000000    0.000000    -7.123990    -16.876337    -11.369405    -0.036538    18.068844    -1.957260    5.699777    29.675341    -5.561777    0.000000    0.000000    0.000000    
-5.484413    111.084389    -54.321861    3.804305    -7.996183    -0.584389    2.582507    6.524115    2.052541    -9.568119    5.078537    2.625018    7.304725    19.217667    -7.243881    -4.935257    11.002694    -7.564405    -0.692261    9.425900    15.595647    -60.325253    51.267094    -10.845011    3.357497    -4.130299    -22.166216    -3.657851    -3.057730    -12.992492    -0.576891    7.256598    1.689549    67.480278    34.148224    8.359461    -0.186172    4.955094    10.507075    6.811744    5.085116    1.908209    -12.896566    -13.254189    3.038877    -1.505047    63.463146    0.187363    17.867935    -36.020145    37.550171    0.000000    0.000000    0.000000    -7.206785    -16.658352    -11.620677    -0.067132    17.501459    -1.917257    5.554767    30.118664    -5.381062    0.000000    0.000000    0.000000    
-5.432981    110.821426    -54.070103    3.955445    -7.907526    -0.631161    2.559611    6.455995    2.139557    -9.720355    4.941800    2.704335    7.340089    19.094124    -7.305550    -4.929018    11.019261    -7.635222    -0.668067    9.404890    15.617025    -60.367592    51.081478    -10.593608    3.220015    -3.888419    -22.268597    -3.267631    -2.880605    -13.107903    -0.552379    7.229823    1.655931    67.632172    34.101738    7.961340    -0.124671    5.042604    10.586185    6.470678    5.162939    1.935842    -13.083617    -13.301436    2.911947    -2.028552    63.890762    0.565296    18.333540    -36.521423    38.123512    0.000000    0.000000    0.000000    -7.340675    -16.356462    -11.903504    -0.074813    16.845154    -1.932454    5.326627    30.603321    -5.047451    0.000000    0.000000    0.000000    
-5.401421    110.565529    -53.835060    4.022770    -7.721522    -0.651233    2.599683    6.320472    2.196282    -9.836946    4.762615    2.749902    7.300527    19.020590    -7.351029    -4.794162    10.983232    -7.684042    -0.657412    9.453650    15.701975    -60.378010    51.037895    -10.353953    3.207507    -3.909018    -22.497673    -3.398188    -2.879328    -13.198096    -0.610114    7.301140    1.602111    67.784256    34.055695    7.688841    -0.107109    5.112957    10.711132    6.695378    5.224613    1.747674    -13.196697    -13.562903    2.750392    -2.443866    64.474670    1.340614    18.200716    -37.044834    38.024529    0.000000    0.000000    0.000000    -7.365486    -16.187681    -12.169637    -0.093281    16.241018    -2.472481    4.710772    31.229351    -4.169900    0.000000    0.000000    0.000000    
